<?xml version="1.0" encoding="UTF-8" standalone="no"?>
<!DOCTYPE svg PUBLIC "-//W3C//DTD SVG 1.1//EN" "http://www.w3.org/Graphics/SVG/1.1/DTD/svg11.dtd">
<svg width="100%" height="100%" viewBox="0 0 14584 2917" version="1.1" xmlns="http://www.w3.org/2000/svg" xmlns:xlink="http://www.w3.org/1999/xlink" xml:space="preserve" xmlns:serif="http://www.serif.com/" style="fill-rule:evenodd;clip-rule:evenodd;stroke-linejoin:round;stroke-miterlimit:2;">
    <g transform="matrix(1,0,0,1,5890.79,2076.92)">
        <g id="Hintergrund">
            <text x="0px" y="0px" style="font-family:'LucidaGrande', 'Lucida Grande', sans-serif;font-weight:500;font-size:1666.67px;fill:rgb(61,217,235);">Chattlin</text>
        </g>
    </g>
    <g transform="matrix(1.4846,-1.93153e-18,1.28769e-18,1.78651,-5158.33,-7561)">
        <g id="Hintergrund1" serif:id="Hintergrund">
            <g>
                <g transform="matrix(0.00864787,3.45278,-10.0743,0.0134789,11354.1,3291.15)">
                    <path d="M510.976,426.721L723.954,646.226L297.998,646.226L510.976,426.721Z" style="fill:rgb(125,235,245);"/>
                </g>
                <g transform="matrix(7.72072,0.00175505,-0.000716744,3.15306,1720.62,3954.26)">
                    <path d="M405.013,240.436L692.559,351.267L405.013,351.267L405.013,240.436Z" style="fill:rgb(0,179,215);"/>
                </g>
                <g transform="matrix(7.72072,0.00175505,0.000716744,-3.15306,1721.76,6169.41)">
                    <path d="M405.013,240.436L692.559,351.267L405.013,351.267L405.013,240.436Z" style="fill:rgb(61,217,235);"/>
                </g>
                <g transform="matrix(7.34308,0.00166921,-0.00115205,5.06804,2615.46,2434.07)">
                    <path d="M304.039,449.605L304.039,518.52L249.173,518.52L304.039,449.605Z" style="fill:rgb(61,217,235);"/>
                </g>
                <g transform="matrix(7.31943,0.00166383,0.00115259,-5.07039,2622.97,7691.06)">
                    <path d="M304.039,449.605L304.039,518.52L249.173,518.52L304.039,449.605Z" style="fill:rgb(125,235,245);"/>
                </g>
            </g>
        </g>
    </g>
</svg>
